<svg xmlns="http://www.w3.org/2000/svg" width="186.008" height="288.06" viewBox="0 0 186.008 288.06"><defs><style>.a{fill:#ffecd2;}.a,.b{fill-rule:evenodd;}.b{fill:#ffbd59;}</style></defs><g transform="translate(-264.173 -98.384)"><g transform="translate(264.181 98.134)"><path class="a" d="M356.181,98.433c18.219,0,36.783-.031,55,0,20.973.034,36.985,25.407,37,58,.025,55.823.406,112.191,1,168,.371,35.129-17.322,62.623-40,62-34.987-.963-70.009-.845-105,0-22.42.545-40.312-26.425-40-61,.492-54.691.667-110.32,0-165-.436-35.706,17.011-63.383,40-62C321.416,99.471,338.921,98.433,356.181,98.433Z" transform="translate(-264.181 -98.134)"/></g><path d="M673.788,326.5" transform="translate(-223.607 -67.063)"/><g transform="translate(272.743 124.05)"><path class="b" d="M455.32,124.433c5.3,1.259,9.784,3.377,11,8a23.312,23.312,0,0,1,1,5c2.393.044,2.064,1.579,2,3-.084,1.974-.042,4.559-3,5-1.791.265-2.938.851-3,2-.175,3.225.2,6.775,0,10-.093,1.47.719,2.152,3,2,1.373-.09,1.831.628,2,2,.095.693,1.015.653,2,1,2.919,1.029,6,2.142,9,3,3.231.921,5.883,2.542,7,5,2,4.416,3.161,9.542,5,14,1.18,2.859,2.549,5.227,4,8,.619,1.19.187,1.615-1,2-1.791.584-1.265,1.708-1,3,.559,2.747,1.551,5.876,4,8a4.745,4.745,0,0,1,1,2c2.872,7.215,4.969,13.829,8,21,2.539,6.014,4.928,12.831,10,18,2.42,2.465.712,4.762,0,7-1.157,3.648-.461,6.045,2,9,.535.64,1.8,1.315,2,2,1.274,4.334,5.188,7.381,8,11a35.528,35.528,0,0,1,7,17,18.239,18.239,0,0,1,0,5c-4.648-.213-9.49-.826-14-1-1.111-.043-1.942.772-3,1a46.508,46.508,0,0,1-15,1,8.2,8.2,0,0,0-2,0c-2.064.423-3.966.491-6,1-5.851,1.47-5.31,1.695-6-3a24.658,24.658,0,0,0-1-3c-.613-2.063-1.248-3.972,0-6,.662-1.066,1.261-1.98,2-3,4.833-6.661,6.549-14.675,9-22a29.562,29.562,0,0,1,5-9c1.7-2.11.288-3.1,0-5-.347-2.347-1.041-4.669-1-7a10.763,10.763,0,0,0-2-7c-2.871-3.883-5.287-8.048-8-12-2.5-3.631-5.8-7.251-8-11-.684-1.174-.688-2.693-1-4-.8-3.363-1.294-7.16-4-10a19.036,19.036,0,0,1-2-3c-.913,3.56-2.315,7.044-3,11-.9,5.256.935,10.891,2,16,.888,4.281,1.445,8.684,2,13,.139,1.052,1.167,2.6-1,3-.218.041-1,.68-1,1-.01,3.372-.012,6.63,0,10,.025,7.311.358,14.7,0,22-.455,9.33-1.277,18.676-2,28-.142,1.817.041,3.177,0,5-.075,3.359.005,6.64,0,10,0,1.88.035,4.123,0,6-.081,4.215.175,7.79,0,12a8.185,8.185,0,0,1,0,1c-2.155,2.061.241,3.228,1,5a14.235,14.235,0,0,1,1,5c.341,4.366-4.572,8.012-10,7-3.277-.613-4.323-2.867-5-5-.474-1.487.211-3.466,0-5-.2-1.46-.85-2.556-1-4-4.209-.819-4.84-1.41-5-5-.117-2.582.192-5.418,0-8-.17-2.3-.8-4.7-1-7-.6-7.057-1.287-13.949-2-21-.7-6.932-1.292-14.07-2-21-.313-3.078-.409-5.882-1-9-.542,3.889-.656,8.1-1,12a449.841,449.841,0,0,0-2,53c.1,3.5.6,6.51,1,10,.153,1.332.32,3.026-2,3-.146,3.436,3.276,7.271-3,9h-8c-6.97-1.657-4.106-5.422-4-9-2.36-.322-2.83-2.266-3-4-.23-2.367-.884-4.631-1-7-.263-5.4-.879-10.6-1-16-.377-17-.765-34-1-51-.089-6.163.84-11.832,1-18,.076-2.786,0-6.15,0-9-3.189-.038-3.749-1.112-3-3,.388-.991-.249-1.974,0-3,.95-3.973,2.184-8.01,3-12,.922-4.482,2.726-8.484,3-13,.237-3.894-.656-8.083-1-12-.057-.624-.954-1.372-1-2-1.257,1.095-.95,2.167-2,3-3.8,3.016-4.4,7.086-5,11a9.046,9.046,0,0,1-1,3,134,134,0,0,1-8,12c-5.6,7.114-10.837,13.738-13,22-.307,1.177-1.28,3.1,1,4,.221.086,1.1.846,1,1a2.737,2.737,0,0,0,1,4c5.651,3.747,8.2,8.857,10,14,1.413,4.026,1.249,7.83,2,12,.95,5.287,1.341,10.955-2,16-.846,1.272-.7,2.256-3,2-5.591-.632-11.4-1.4-17-2-5.112-.543-9.875-1.58-15-2-6.216-.51-7.193.85-9-5v-6c.214-.207-.148-.77,0-1,3.717-5.978,7.353-11.994,11-18,1.41-2.319,2.644-4.658,4-7,.79-1.367,2.285-2.608,3-4,2.136-4.159,2.032-8.886,7-12a3.354,3.354,0,0,0,1-1c1.122-2.359,2.115-4.585,3-7,2.575-7.057,5.33-13.969,8-21a58.983,58.983,0,0,1,4-8c1.31-2.274,2.685-4.728,4-7,.68-1.174-.388-1.465-2-2-2.69-.888-2.208-1.885-1-4,.511-.892.553-2.087,1-3,2.821-5.754,5.126-11.267,8-17a11.868,11.868,0,0,1,8-6c2.636-.636,5.425-1.239,8-2a26.822,26.822,0,0,0,4-1c.947-.461,2.029-1.964,3-2,1.9-.064,2.937-.733,3-2,.189-3.673,0-7.314,0-11-3.835.094-4.987-1.4-6-4-.745-1.922.211-2.752,2-3a34.541,34.541,0,0,1,1-6c1.285-4.349,4.827-6.564,10-8C452.751,124.432,453.9,124.433,455.32,124.433Z" transform="translate(-366.882 -124.05)"/></g></g></svg>