<svg xmlns="http://www.w3.org/2000/svg" width="242.197" height="155.266" viewBox="0 0 242.197 155.266"><defs><style>.a{fill:none;}</style></defs><path class="a" d="M0,0H242.2V155.266H0Z"/><path d="M197.525,96.041V22.408C197.525,12.284,187.7,4,175.689,4H22.836C10.826,4,1,12.284,1,22.408V96.041c0,10.125,9.826,18.408,21.836,18.408H175.689C187.7,114.449,197.525,106.166,197.525,96.041Zm-98.262-9.2c-18.124,0-32.754-12.333-32.754-27.612s14.63-27.612,32.754-27.612,32.754,12.333,32.754,27.612S117.386,86.837,99.263,86.837ZM241.2,31.612V132.857c0,10.125-9.826,18.408-21.836,18.408H33.754V132.857H219.361V31.612Z"/></svg>