<svg xmlns="http://www.w3.org/2000/svg" xmlns:xlink="http://www.w3.org/1999/xlink" viewBox="0 0 650 650"><defs><style>.cls-1{fill:url(#Безымянный_градиент_263);}.cls-2{fill:url(#Безымянный_градиент_17);}.cls-3{fill:url(#Безымянный_градиент_31);}.cls-4{fill:url(#Безымянный_градиент_33);}.cls-5{fill:url(#Безымянный_градиент_33-2);}.cls-6{fill:url(#Безымянный_градиент_33-3);}.cls-7{fill:url(#Безымянный_градиент_33-4);}.cls-8{fill:url(#Безымянный_градиент_33-5);}.cls-9{fill:url(#Безымянный_градиент_33-6);}.cls-10{fill:url(#Безымянный_градиент_33-7);}.cls-11{fill:url(#Безымянный_градиент_11);}.cls-12{fill:url(#Безымянный_градиент_26);}.cls-13{fill:url(#Безымянный_градиент_26-2);}.cls-14{fill:url(#Безымянный_градиент_26-3);}.cls-15{fill:url(#Безымянный_градиент_26-4);}.cls-16{fill:#e7e9eb;}.cls-17{fill:url(#Безымянный_градиент_26-5);}.cls-18{fill:url(#Безымянный_градиент_26-6);}.cls-19{fill:url(#Безымянный_градиент_26-7);}.cls-20{fill:url(#Безымянный_градиент_123);}.cls-21{fill:url(#Безымянный_градиент_3);}.cls-22{fill:url(#Безымянный_градиент_123-2);}.cls-23{fill:url(#Безымянный_градиент_3-2);}.cls-24{fill:url(#Безымянный_градиент_123-3);}.cls-25{fill:url(#Безымянный_градиент_123-4);}.cls-26{fill:url(#Безымянный_градиент_123-5);}.cls-27{fill:url(#Безымянный_градиент_123-6);}.cls-28{fill:#1f1844;}.cls-29{fill:url(#Безымянный_градиент_250);}.cls-30{fill:url(#Безымянный_градиент_13);}.cls-31{fill:url(#Безымянный_градиент_23);}.cls-32{fill:url(#Безымянный_градиент_123-7);}.cls-33{fill:url(#Безымянный_градиент_123-8);}.cls-34{fill:url(#Безымянный_градиент_122);}.cls-35{fill:url(#Безымянный_градиент_48);}.cls-36{fill:url(#Безымянный_градиент_123-9);}.cls-37{fill:url(#Безымянный_градиент_13-2);}.cls-38{fill:url(#Безымянный_градиент_123-10);}.cls-39{fill:url(#Безымянный_градиент_123-11);}.cls-40{fill:url(#Безымянный_градиент_29);}.cls-41{fill:url(#Безымянный_градиент_29-2);}.cls-42{fill:url(#Безымянный_градиент_123-12);}.cls-43{fill:url(#Безымянный_градиент_123-13);}.cls-44{fill:url(#Безымянный_градиент_29-3);}.cls-45{fill:url(#Безымянный_градиент_48-2);}.cls-46{fill:url(#Безымянный_градиент_123-14);}.cls-47{fill:url(#Безымянный_градиент_48-3);}.cls-48{fill:url(#Безымянный_градиент_14);}.cls-49{fill:url(#Безымянный_градиент_29-4);}.cls-50{fill:url(#Безымянный_градиент_29-5);}.cls-51{fill:url(#Безымянный_градиент_29-6);}.cls-52{fill:url(#Безымянный_градиент_29-7);}.cls-53{fill:url(#Безымянный_градиент_29-8);}.cls-54{fill:url(#Безымянный_градиент_29-9);}.cls-55{fill:url(#Безымянный_градиент_29-10);}.cls-56{fill:url(#Безымянный_градиент_29-11);}.cls-57{fill:url(#Безымянный_градиент_29-12);}.cls-58{fill:url(#Безымянный_градиент_29-13);}.cls-59{fill:url(#Безымянный_градиент_29-14);}.cls-60{fill:url(#Безымянный_градиент_29-15);}.cls-61{fill:url(#Безымянный_градиент_29-16);}.cls-62{fill:url(#Безымянный_градиент_29-17);}.cls-63{fill:url(#Безымянный_градиент_29-18);}.cls-64{fill:url(#Безымянный_градиент_29-19);}.cls-65{fill:url(#Безымянный_градиент_29-20);}.cls-66{fill:url(#Безымянный_градиент_29-21);}.cls-67{fill:url(#Безымянный_градиент_29-22);}.cls-68{fill:url(#Безымянный_градиент_29-23);}.cls-103,.cls-104,.cls-69,.cls-76,.cls-77,.cls-78,.cls-86,.cls-87,.cls-88,.cls-89,.cls-90,.cls-91,.cls-92,.cls-93,.cls-94,.cls-95,.cls-96,.cls-97,.cls-98,.cls-99{fill:none;stroke-miterlimit:10;}.cls-69{stroke:#f2f4f6;}.cls-104,.cls-69{stroke-width:0.65px;}.cls-70{fill:#f2f4f6;}.cls-71{fill:url(#Безымянный_градиент_250-2);}.cls-72{fill:url(#Безымянный_градиент_250-3);}.cls-73{fill:url(#Безымянный_градиент_250-4);}.cls-74{fill:#d5527e;}.cls-75{fill:#fff;}.cls-103,.cls-104,.cls-76,.cls-77,.cls-78,.cls-86,.cls-87,.cls-88,.cls-89,.cls-90,.cls-91,.cls-92,.cls-93,.cls-94,.cls-95,.cls-96,.cls-97,.cls-98,.cls-99{stroke-linecap:round;}.cls-76,.cls-77,.cls-78,.cls-86,.cls-87,.cls-88,.cls-89,.cls-90,.cls-91,.cls-92,.cls-93,.cls-94,.cls-95,.cls-96,.cls-97,.cls-98,.cls-99{stroke-width:4.68px;}.cls-76{stroke:url(#Безымянный_градиент_139);}.cls-77{stroke:url(#Безымянный_градиент_139-2);}.cls-78{stroke:url(#Безымянный_градиент_139-3);}.cls-79{fill:url(#Безымянный_градиент_29-24);}.cls-80{fill:url(#Безымянный_градиент_29-25);}.cls-81{fill:url(#Безымянный_градиент_48-4);}.cls-82{fill:url(#Безымянный_градиент_123-15);}.cls-83{fill:url(#Безымянный_градиент_140);}.cls-84{fill:url(#Безымянный_градиент_48-5);}.cls-85{fill:url(#Безымянный_градиент_157);}.cls-86{stroke:url(#Безымянный_градиент_139-4);}.cls-87{stroke:url(#Безымянный_градиент_139-5);}.cls-88{stroke:url(#Безымянный_градиент_139-6);}.cls-89{stroke:url(#Безымянный_градиент_139-7);}.cls-90{stroke:url(#Безымянный_градиент_139-8);}.cls-91{stroke:url(#Безымянный_градиент_139-9);}.cls-92{stroke:url(#Безымянный_градиент_139-10);}.cls-93{stroke:url(#Безымянный_градиент_139-11);}.cls-94{stroke:url(#Безымянный_градиент_39);}.cls-95{stroke:url(#Безымянный_градиент_39-2);}.cls-96{stroke:url(#Безымянный_градиент_39-3);}.cls-97{stroke:url(#Безымянный_градиент_139-12);}.cls-98{stroke:url(#Безымянный_градиент_38);}.cls-99{stroke:url(#Безымянный_градиент_37);}.cls-100{fill:url(#Безымянный_градиент_250-5);}.cls-101{fill:url(#Безымянный_градиент_250-6);}.cls-102{fill:url(#Безымянный_градиент_3-3);}.cls-103,.cls-104{stroke:#fff;}.cls-103{stroke-width:0.87px;}</style><linearGradient id="Безымянный_градиент_263" x1="88.84" y1="335.07" x2="631.93" y2="335.07" gradientUnits="userSpaceOnUse"><stop offset="0" stop-color="#f0f2f5"/><stop offset="0.99" stop-color="#f5f7f8"/></linearGradient><linearGradient id="Безымянный_градиент_17" x1="552.36" y1="692.66" x2="719.83" y2="654.18" gradientTransform="translate(-296.31 -296.37) rotate(-9.62)" gradientUnits="userSpaceOnUse"><stop offset="0.01" stop-color="#bbc0d9"/><stop offset="1" stop-color="#d6dbf8"/></linearGradient><linearGradient id="Безымянный_градиент_31" x1="375.19" y1="322.55" x2="503.7" y2="301.22" gradientUnits="userSpaceOnUse"><stop offset="0" stop-color="#d6dbf8"/><stop offset="0.99" stop-color="#d6dbf8"/></linearGradient><linearGradient id="Безымянный_градиент_33" x1="-1448.51" y1="-145.25" x2="-1424.15" y2="-145.25" gradientTransform="matrix(-0.3, -0.95, -0.95, 0.3, 39.86, -942.67)" gradientUnits="userSpaceOnUse"><stop offset="0" stop-color="#e0e4eb"/><stop offset="0.99" stop-color="#f3f6fd"/></linearGradient><linearGradient id="Безымянный_градиент_33-2" x1="-811.04" y1="635.15" x2="-786.44" y2="635.15" gradientTransform="matrix(0.16, -0.99, -0.99, -0.16, 1342.98, -238.82)" xlink:href="#Безымянный_градиент_33"/><linearGradient id="Безымянный_градиент_33-3" x1="-4453.22" y1="789.23" x2="-4428.82" y2="789.23" gradientTransform="matrix(-0.91, 0.4, 0.4, 0.91, -3821.74, 1422.02)" xlink:href="#Безымянный_градиент_33"/><linearGradient id="Безымянный_градиент_33-4" x1="-4538.54" y1="1096.77" x2="-4513.55" y2="1096.77" gradientTransform="matrix(-0.84, 0.54, 0.48, 0.75, -3796.45, 2034.24)" xlink:href="#Безымянный_градиент_33"/><linearGradient id="Безымянный_градиент_33-5" x1="558.01" y1="432.37" x2="530.72" y2="409.04" gradientTransform="matrix(1, 0, 0, 1, 0, 0)" xlink:href="#Безымянный_градиент_33"/><linearGradient id="Безымянный_градиент_33-6" x1="-426.45" y1="1153.12" x2="-400.91" y2="1153.12" gradientTransform="matrix(0.39, -0.85, -0.91, -0.42, 1771.02, 624.91)" xlink:href="#Безымянный_градиент_33"/><linearGradient id="Безымянный_градиент_33-7" x1="-4534.46" y1="1519.7" x2="-4506.8" y2="1519.7" gradientTransform="matrix(-0.74, 0.68, 0.53, 0.58, -3632.15, 2603.47)" xlink:href="#Безымянный_градиент_33"/><linearGradient id="Безымянный_градиент_11" x1="-3001.45" y1="-453.08" x2="-3019.89" y2="-377.65" gradientTransform="matrix(-0.89, -0.46, -0.46, 0.89, -2270.34, -694.46)" gradientUnits="userSpaceOnUse"><stop offset="0" stop-color="#e6eaf1"/><stop offset="0.99" stop-color="#f3f6fd"/></linearGradient><linearGradient id="Безымянный_градиент_26" x1="100.65" y1="537.67" x2="200.68" y2="537.67" gradientTransform="translate(-129.59 -161.68) rotate(-4.18)" gradientUnits="userSpaceOnUse"><stop offset="0.01" stop-color="#edeff0"/><stop offset="1" stop-color="#e1e3e6"/></linearGradient><linearGradient id="Безымянный_градиент_26-2" x1="135.15" y1="612.43" x2="227.06" y2="612.43" xlink:href="#Безымянный_градиент_26"/><linearGradient id="Безымянный_градиент_26-3" x1="194.19" y1="504.69" x2="239.04" y2="504.69" xlink:href="#Безымянный_градиент_26"/><linearGradient id="Безымянный_градиент_26-4" x1="222.37" y1="570.59" x2="276.81" y2="570.59" xlink:href="#Безымянный_градиент_26"/><linearGradient id="Безымянный_градиент_26-5" x1="173.9" y1="666.63" x2="265.61" y2="666.63" xlink:href="#Безымянный_градиент_26"/><linearGradient id="Безымянный_градиент_26-6" x1="258.19" y1="611.15" x2="305.03" y2="611.15" xlink:href="#Безымянный_градиент_26"/><linearGradient id="Безымянный_градиент_26-7" x1="135.47" y1="453.75" x2="176.85" y2="453.75" xlink:href="#Безымянный_градиент_26"/><linearGradient id="Безымянный_градиент_123" x1="-4490.64" y1="1316" x2="-4461.26" y2="1316" gradientTransform="matrix(-0.95, 0.32, 0.32, 0.95, -4347.96, 713.01)" gradientUnits="userSpaceOnUse"><stop offset="0" stop-color="#753200"/><stop offset="1" stop-color="#a04400"/></linearGradient><linearGradient id="Безымянный_градиент_3" x1="297.39" y1="546.82" x2="345.42" y2="546.82" gradientUnits="userSpaceOnUse"><stop offset="0.09" stop-color="#d9d9d9"/><stop offset="0.12" stop-color="#d6d6d6"/><stop offset="0.7" stop-color="#aeaeae"/><stop offset="1" stop-color="#9f9f9f"/></linearGradient><linearGradient id="Безымянный_градиент_123-2" x1="-4545.95" y1="1334.58" x2="-4516.58" y2="1334.58" xlink:href="#Безымянный_градиент_123"/><linearGradient id="Безымянный_градиент_3-2" x1="355.83" y1="547.04" x2="403.77" y2="547.04" xlink:href="#Безымянный_градиент_3"/><linearGradient id="Безымянный_градиент_123-3" x1="546.14" y1="634.4" x2="570.26" y2="634.4" gradientTransform="translate(-216.15 -223.31) rotate(-6.91)" xlink:href="#Безымянный_градиент_123"/><linearGradient id="Безымянный_градиент_123-4" x1="266.57" y1="346.83" x2="296.96" y2="346.83" gradientTransform="matrix(1, 0, 0, 1, 0, 0)" xlink:href="#Безымянный_градиент_123"/><linearGradient id="Безымянный_градиент_123-5" x1="-4525.87" y1="2711.65" x2="-4543.9" y2="2679.99" gradientTransform="matrix(-0.65, 0.76, 0.76, 0.65, -4769.5, 2196.96)" xlink:href="#Безымянный_градиент_123"/><linearGradient id="Безымянный_градиент_123-6" x1="-4408.7" y1="2893.24" x2="-4423.84" y2="2866.64" gradientTransform="matrix(-0.59, 0.81, 0.81, 0.59, -4732.96, 2414.34)" xlink:href="#Безымянный_градиент_123"/><linearGradient id="Безымянный_градиент_250" x1="140.72" y1="252.57" x2="267.67" y2="252.57" gradientUnits="userSpaceOnUse"><stop offset="0" stop-color="#a7a5ee"/><stop offset="0.44" stop-color="#9d9ce8"/><stop offset="0.89" stop-color="#8988d5"/></linearGradient><linearGradient id="Безымянный_градиент_13" x1="243.02" y1="307.87" x2="285.97" y2="307.87" gradientUnits="userSpaceOnUse"><stop offset="0" stop-color="#a04400"/><stop offset="0.3" stop-color="#9c4200"/><stop offset="0.62" stop-color="#8e3d00"/><stop offset="0.95" stop-color="#793300"/><stop offset="1" stop-color="#753200"/></linearGradient><linearGradient id="Безымянный_градиент_23" x1="-4091.46" y1="-44.63" x2="-4076.03" y2="-129.16" gradientTransform="matrix(-0.99, -0.16, -0.16, 0.99, -3867.36, -311.86)" gradientUnits="userSpaceOnUse"><stop offset="0" stop-color="#9594e0"/><stop offset="0.63" stop-color="#7170b0"/></linearGradient><linearGradient id="Безымянный_градиент_123-7" x1="-4307.33" y1="885.29" x2="-4301.29" y2="885.29" gradientTransform="matrix(-0.98, 0.19, 0.19, 0.98, -4207.67, 96.66)" xlink:href="#Безымянный_градиент_123"/><linearGradient id="Безымянный_градиент_123-8" x1="-4373.65" y1="930.33" x2="-4328.51" y2="904.53" gradientTransform="matrix(-0.98, 0.19, 0.19, 0.98, -4207.67, 96.66)" xlink:href="#Безымянный_градиент_123"/><linearGradient id="Безымянный_градиент_122" x1="-4341.3" y1="885.05" x2="-4314.77" y2="867.9" gradientTransform="matrix(-0.98, 0.19, 0.19, 0.98, -4207.67, 96.66)" gradientUnits="userSpaceOnUse"><stop offset="0" stop-color="#a04400" stop-opacity="0"/><stop offset="0.18" stop-color="#9a4100" stop-opacity="0.14"/><stop offset="0.52" stop-color="#8a3b00" stop-opacity="0.52"/><stop offset="0.9" stop-color="#753200"/></linearGradient><linearGradient id="Безымянный_градиент_48" x1="-4304.51" y1="909.11" x2="-4327.73" y2="931.89" gradientTransform="matrix(-0.98, 0.19, 0.19, 0.98, -4207.67, 96.66)" gradientUnits="userSpaceOnUse"><stop offset="0" stop-color="#a04400"/><stop offset="1" stop-color="#753200"/></linearGradient><linearGradient id="Безымянный_градиент_123-9" x1="-4304.41" y1="893.06" x2="-4307.41" y2="896" gradientTransform="matrix(-0.98, 0.19, 0.19, 0.98, -4207.67, 96.66)" xlink:href="#Безымянный_градиент_123"/><linearGradient id="Безымянный_градиент_13-2" x1="133.65" y1="311.99" x2="169.34" y2="311.99" xlink:href="#Безымянный_градиент_13"/><linearGradient id="Безымянный_градиент_123-10" x1="452.61" y1="504.64" x2="499.24" y2="504.64" gradientTransform="matrix(1, 0, 0, 1, 0, 0)" xlink:href="#Безымянный_градиент_123"/><linearGradient id="Безымянный_градиент_123-11" x1="503.11" y1="511.25" x2="525.85" y2="511.25" gradientTransform="matrix(1, 0, 0, 1, 0, 0)" xlink:href="#Безымянный_градиент_123"/><linearGradient id="Безымянный_градиент_29" x1="444.46" y1="541.44" x2="462.89" y2="541.44" gradientUnits="userSpaceOnUse"><stop offset="0.28" stop-color="#201f4f"/><stop offset="1" stop-color="#201f4f"/></linearGradient><linearGradient id="Безымянный_градиент_29-2" x1="855.27" y1="2375.68" x2="873.69" y2="2375.68" gradientTransform="matrix(0.62, -0.79, 0.79, 0.62, -1883.21, -225.4)" xlink:href="#Безымянный_градиент_29"/><linearGradient id="Безымянный_градиент_123-12" x1="524.07" y1="426.38" x2="591.39" y2="426.38" gradientTransform="matrix(1, 0, 0, 1, 0, 0)" xlink:href="#Безымянный_градиент_123"/><linearGradient id="Безымянный_градиент_123-13" x1="451.11" y1="382.63" x2="424.23" y2="333.8" gradientTransform="matrix(1, 0, 0, 1, 0, 0)" xlink:href="#Безымянный_градиент_123"/><linearGradient id="Безымянный_градиент_29-3" x1="460.66" y1="424.61" x2="544.34" y2="424.61" xlink:href="#Безымянный_градиент_29"/><linearGradient id="Безымянный_градиент_48-2" x1="-7522.42" y1="1494.54" x2="-7539.73" y2="1511.53" gradientTransform="matrix(-0.98, 0.21, 0.21, 0.98, -7172.87, 490.54)" xlink:href="#Безымянный_градиент_48"/><linearGradient id="Безымянный_градиент_123-14" x1="1549.96" y1="354.92" x2="1508.66" y2="345.72" gradientTransform="translate(-1019.72)" xlink:href="#Безымянный_градиент_123"/><linearGradient id="Безымянный_градиент_48-3" x1="1511.99" y1="350.66" x2="1532.31" y2="361.95" gradientTransform="translate(-1019.72)" xlink:href="#Безымянный_градиент_48"/><linearGradient id="Безымянный_градиент_14" x1="-7522.37" y1="1482.22" x2="-7526.85" y2="1486.62" gradientTransform="matrix(-0.98, 0.21, 0.21, 0.98, -7172.87, 490.54)" gradientUnits="userSpaceOnUse"><stop offset="0" stop-color="#974000"/><stop offset="1" stop-color="#d5a080"/></linearGradient><linearGradient id="Безымянный_градиент_29-4" x1="480.79" y1="321.77" x2="537.02" y2="321.77" xlink:href="#Безымянный_градиент_29"/><linearGradient id="Безымянный_градиент_29-5" x1="484.61" y1="331.89" x2="491.54" y2="331.89" xlink:href="#Безымянный_градиент_29"/><linearGradient id="Безымянный_градиент_29-6" x1="481.15" y1="326.6" x2="488.08" y2="326.6" xlink:href="#Безымянный_градиент_29"/><linearGradient id="Безымянный_градиент_29-7" x1="478.84" y1="320.73" x2="485.77" y2="320.73" xlink:href="#Безымянный_градиент_29"/><linearGradient id="Безымянный_градиент_29-8" x1="478.84" y1="314.72" x2="485.77" y2="314.72" xlink:href="#Безымянный_градиент_29"/><linearGradient id="Безымянный_градиент_29-9" x1="480.28" y1="308.75" x2="487.21" y2="308.75" xlink:href="#Безымянный_градиент_29"/><linearGradient id="Безымянный_градиент_29-10" x1="485.38" y1="305.29" x2="492.31" y2="305.29" xlink:href="#Безымянный_градиент_29"/><linearGradient id="Безымянный_градиент_29-11" x1="490.99" y1="304.81" x2="497.92" y2="304.81" xlink:href="#Безымянный_градиент_29"/><linearGradient id="Безымянный_градиент_29-12" x1="496.08" y1="305.29" x2="503.01" y2="305.29" xlink:href="#Безымянный_градиент_29"/><linearGradient id="Безымянный_градиент_29-13" x1="499.55" y1="307.41" x2="506.48" y2="307.41" xlink:href="#Безымянный_градиент_29"/><linearGradient id="Безымянный_градиент_29-14" x1="502.51" y1="309.71" x2="509.44" y2="309.71" xlink:href="#Безымянный_градиент_29"/><linearGradient id="Безымянный_градиент_29-15" x1="508.9" y1="308.27" x2="515.83" y2="308.27" xlink:href="#Безымянный_градиент_29"/><linearGradient id="Безымянный_градиент_29-16" x1="513.72" y1="305.29" x2="520.64" y2="305.29" xlink:href="#Безымянный_градиент_29"/><linearGradient id="Безымянный_градиент_29-17" x1="519.59" y1="304.81" x2="526.51" y2="304.81" xlink:href="#Безымянный_градиент_29"/><linearGradient id="Безымянный_градиент_29-18" x1="525.04" y1="304.81" x2="531.97" y2="304.81" xlink:href="#Безымянный_градиент_29"/><linearGradient id="Безымянный_градиент_29-19" x1="528.5" y1="307.79" x2="535.43" y2="307.79" xlink:href="#Безымянный_градиент_29"/><linearGradient id="Безымянный_градиент_29-20" x1="531.97" y1="311.74" x2="538.89" y2="311.74" xlink:href="#Безымянный_градиент_29"/><linearGradient id="Безымянный_градиент_29-21" x1="532.45" y1="316.64" x2="539.38" y2="316.64" xlink:href="#Безымянный_градиент_29"/><linearGradient id="Безымянный_градиент_29-22" x1="531.97" y1="322.29" x2="538.89" y2="322.29" xlink:href="#Безымянный_градиент_29"/><linearGradient id="Безымянный_градиент_29-23" x1="529.32" y1="327.14" x2="536.25" y2="327.14" xlink:href="#Безымянный_градиент_29"/><linearGradient id="Безымянный_градиент_250-2" x1="299.53" y1="412.42" x2="388.1" y2="412.42" xlink:href="#Безымянный_градиент_250"/><linearGradient id="Безымянный_градиент_250-3" x1="175.1" y1="535.07" x2="207.95" y2="535.07" xlink:href="#Безымянный_градиент_250"/><linearGradient id="Безымянный_градиент_250-4" x1="219.6" y1="536.35" x2="279.88" y2="536.35" xlink:href="#Безымянный_градиент_250"/><linearGradient id="Безымянный_градиент_139" x1="-5603.47" y1="-449.82" x2="-5562.6" y2="-449.82" gradientTransform="matrix(-0.99, -0.17, -0.17, 0.99, -5211.88, -343.91)" gradientUnits="userSpaceOnUse"><stop offset="0" stop-color="#201f4f"/><stop offset="0.26" stop-color="#27275a"/><stop offset="0.72" stop-color="#393c76"/><stop offset="1" stop-color="#464b8b"/></linearGradient><linearGradient id="Безымянный_градиент_139-2" x1="-5597.35" y1="-448.77" x2="-5556.48" y2="-448.77" xlink:href="#Безымянный_градиент_139"/><linearGradient id="Безымянный_градиент_139-3" x1="-5610.66" y1="-453.32" x2="-5569.78" y2="-453.32" xlink:href="#Безымянный_градиент_139"/><linearGradient id="Безымянный_градиент_29-24" x1="1366.28" y1="191.64" x2="1376.15" y2="137.54" gradientTransform="translate(-1019.72)" xlink:href="#Безымянный_градиент_29"/><linearGradient id="Безымянный_градиент_29-25" x1="1329.14" y1="158.82" x2="1387.01" y2="132.04" gradientTransform="translate(-1019.72)" xlink:href="#Безымянный_градиент_29"/><linearGradient id="Безымянный_градиент_48-4" x1="-7404.71" y1="1290.35" x2="-7424.98" y2="1310.24" gradientTransform="matrix(-0.98, 0.21, 0.21, 0.98, -7172.87, 490.54)" xlink:href="#Безымянный_градиент_48"/><linearGradient id="Безымянный_градиент_123-15" x1="1396.61" y1="184.5" x2="1348.82" y2="173.86" gradientTransform="translate(-1019.72)" xlink:href="#Безымянный_градиент_123"/><linearGradient id="Безымянный_градиент_140" x1="1384.81" y1="147.38" x2="1357.97" y2="160.15" gradientTransform="translate(-1019.72)" gradientUnits="userSpaceOnUse"><stop offset="0.1" stop-color="#753200"/><stop offset="0.48" stop-color="#8a3b00" stop-opacity="0.52"/><stop offset="0.82" stop-color="#9a4100" stop-opacity="0.14"/><stop offset="1" stop-color="#a04400" stop-opacity="0"/></linearGradient><linearGradient id="Безымянный_градиент_48-5" x1="1352.97" y1="176.17" x2="1376.83" y2="189.42" gradientTransform="translate(-1019.72)" xlink:href="#Безымянный_градиент_48"/><linearGradient id="Безымянный_градиент_157" x1="-7404.76" y1="1276.2" x2="-7407.38" y2="1278.77" gradientTransform="matrix(-0.98, 0.21, 0.21, 0.98, -7172.87, 490.54)" gradientUnits="userSpaceOnUse"><stop offset="0" stop-color="#a96e46"/><stop offset="1" stop-color="#ffd0b9"/></linearGradient><linearGradient id="Безымянный_градиент_139-4" x1="1331.66" y1="153.97" x2="1372.53" y2="153.97" gradientTransform="translate(-1019.72)" xlink:href="#Безымянный_градиент_139"/><linearGradient id="Безымянный_градиент_139-5" x1="1337" y1="160.18" x2="1377.88" y2="160.18" gradientTransform="translate(-1019.72)" xlink:href="#Безымянный_градиент_139"/><linearGradient id="Безымянный_градиент_139-6" x1="1325.09" y1="155.83" x2="1365.96" y2="155.83" gradientTransform="translate(-1019.72)" xlink:href="#Безымянный_градиент_139"/><linearGradient id="Безымянный_градиент_139-7" x1="1195.25" y1="-153.9" x2="1236.43" y2="-153.9" gradientTransform="translate(-900.75 201.29) rotate(4.85)" xlink:href="#Безымянный_градиент_139"/><linearGradient id="Безымянный_градиент_139-8" x1="1335.35" y1="153.97" x2="1375.73" y2="153.97" gradientTransform="translate(-1019.72)" xlink:href="#Безымянный_градиент_139"/><linearGradient id="Безымянный_градиент_139-9" x1="1356.1" y1="138.57" x2="1379.52" y2="138.57" gradientTransform="translate(-1019.72)" xlink:href="#Безымянный_градиент_139"/><linearGradient id="Безымянный_градиент_139-10" x1="1342.39" y1="158.48" x2="1371.72" y2="158.48" gradientTransform="translate(-1019.72)" xlink:href="#Безымянный_градиент_139"/><linearGradient id="Безымянный_градиент_139-11" x1="1349.76" y1="158.48" x2="1379.08" y2="158.48" gradientTransform="translate(-1019.72)" xlink:href="#Безымянный_градиент_139"/><linearGradient id="Безымянный_градиент_39" x1="1378.86" y1="152.37" x2="1407.22" y2="152.37" gradientTransform="translate(-1019.72)" gradientUnits="userSpaceOnUse"><stop offset="0" stop-color="#464b8b"/><stop offset="0.28" stop-color="#393c76"/><stop offset="0.74" stop-color="#27275a"/><stop offset="1" stop-color="#201f4f"/></linearGradient><linearGradient id="Безымянный_градиент_39-2" x1="1475.2" y1="437.98" x2="1506.7" y2="437.98" gradientTransform="matrix(1, -0.08, 0.08, 1, -1143.84, -171.34)" xlink:href="#Безымянный_градиент_39"/><linearGradient id="Безымянный_градиент_39-3" x1="1380.82" y1="139.57" x2="1399.93" y2="139.57" xlink:href="#Безымянный_градиент_39"/><linearGradient id="Безымянный_градиент_139-12" x1="1359.35" y1="143.89" x2="1385.31" y2="143.89" gradientTransform="translate(-1019.72)" xlink:href="#Безымянный_градиент_139"/><linearGradient id="Безымянный_градиент_38" x1="1371.05" y1="140.39" x2="1391.3" y2="140.39" gradientTransform="translate(-1019.72)" gradientUnits="userSpaceOnUse"><stop offset="0" stop-color="#201f4f"/><stop offset="0.12" stop-color="#252558"/><stop offset="0.7" stop-color="#3d417d"/><stop offset="1" stop-color="#464b8b"/></linearGradient><linearGradient id="Безымянный_градиент_37" x1="1348.9" y1="152.32" x2="1393.06" y2="152.32" gradientTransform="translate(-1019.72)" gradientUnits="userSpaceOnUse"><stop offset="0" stop-color="#201f4f"/><stop offset="0.23" stop-color="#303168"/><stop offset="0.48" stop-color="#3c407b"/><stop offset="0.74" stop-color="#444887"/><stop offset="1" stop-color="#464b8b"/></linearGradient><linearGradient id="Безымянный_градиент_250-5" x1="324.44" y1="527.54" x2="296.57" y2="521.33" xlink:href="#Безымянный_градиент_250"/><linearGradient id="Безымянный_градиент_250-6" x1="382.81" y1="527.54" x2="354.94" y2="521.33" xlink:href="#Безымянный_градиент_250"/><linearGradient id="Безымянный_градиент_3-3" x1="334.04" y1="327.7" x2="367.87" y2="327.7" xlink:href="#Безымянный_градиент_3"/></defs><title>1</title><g id="_01" data-name="01"><path class="cls-1" d="M613.38,345.89C565.69,248.4,429.29,105.6,252,105.23c-185-.38-202.84,183.06-103.16,234S102.82,453.81,207,517.67c105.46,64.63,330.85,58.57,386.33,8.29S634,388,613.38,345.89Z"/><path class="cls-2" d="M496.37,295.84c-29.9,16.64,11.51,51.95-20.13,76.38S401.59,413.6,398,405c-.25-.57-3.13-6.22-6.58-14.61-.79-1.94-1.62-4-2.46-6.24-.22-.62-.45-1.25-.69-1.88a178.56,178.56,0,0,1-6.2-20.61c-.06-.21-.09-.43-.15-.65-.64-2.78-1.17-5.6-1.6-8.42s-.72-5.44-.87-8.12c-.66-10.19.64-19.9,5.37-27.51a28.08,28.08,0,0,1,4.31-5.41c21.32-20.91,32.36-14.38,28-39.2-7.54-42.53,3.51-50.95,18.49-49.16s26.34,1.08,25.76-15-25.35-84.06,7.08-89.42c56.18-9.34,39.94,67.14,36.24,79.73-8.88,30.18,20.16,29.75,30.33,48.92S526.25,279.2,496.37,295.84Z"/><path class="cls-3" d="M402.16,467.19a132.7,132.7,0,0,1-4.23-20.31,165.38,165.38,0,0,1-1.46-20.77,146,146,0,0,1,5.58-41.36,123.44,123.44,0,0,1,7.57-19.61c1.49-3.18,3.25-6.23,5-9.28l2.82-4.46c.94-1.49,2-2.88,3-4.33.52-.71,1-1.44,1.55-2.14l1.66-2.06,1.66-2.05.83-1,.89-1,3.55-3.91c1.14-1.29,2.29-2.43,3.36-3.76a128,128,0,0,0,11.69-16.6,228.44,228.44,0,0,0,17.88-36.81q3.7-9.57,6.64-19.42c1.94-6.56,3.61-13.21,5.06-19.9,5.64-26.77,6.86-54.68,1.66-81.86a171.75,171.75,0,0,1,4.08,20.35c.27,1.71.41,3.44.6,5.17s.37,3.45.46,5.18l.34,5.2.16,5.21A209.48,209.48,0,0,1,479,239.16a236.61,236.61,0,0,1-29.15,77.94,132.69,132.69,0,0,1-12.23,17.16c-1.11,1.36-2.41,2.66-3.57,3.94l-3.43,3.74-.86.93-.8,1-1.61,2-1.61,2c-.53.66-1,1.36-1.52,2-1,1.37-2,2.7-3,4.11l-2.79,4.25c-1.73,2.91-3.47,5.82-5,8.87a132.52,132.52,0,0,0-7.76,18.82,152,152,0,0,0-6.83,40.28,174.37,174.37,0,0,0,.41,20.59c.27,3.43.62,6.86,1.1,10.27S401.4,463.82,402.16,467.19Z"/><path class="cls-4" d="M646.74,364.07c-1-16.62-82.06,8.27-78.51,24.68S647.68,379.9,646.74,364.07Z"/><path class="cls-5" d="M624.48,443.83c6.54-15.42-69.71-27.53-73.89-11.14S618.25,458.52,624.48,443.83Z"/><path class="cls-6" d="M537.09,315.93c-16.21,3.13,15.68,81.59,31.45,75.91S552.54,312.95,537.09,315.93Z"/><path class="cls-7" d="M510.31,381.62c-15.35,6,25.61,61.9,40.28,53.69S524.93,375.91,510.31,381.62Z"/><path class="cls-8" d="M597.45,333.4c-3.93,7.76-7.77,15.54-11.39,23.43s-7.16,15.8-10.49,23.8-6.43,16.09-9.15,24.29c-.69,2-1.41,4.15-2.19,6.2-.41,1-.79,2.06-1.22,3.07l-1.31,3c-1.81,4-3.8,7.92-5.92,11.76a202.16,202.16,0,0,1-31.51,41.82c-3.08,3.1-6.25,6.12-9.55,9s-6.75,5.58-10.31,8.11a89.77,89.77,0,0,1-11.22,6.78,50.27,50.27,0,0,1-12.26,4.47c8.33-2.54,15.77-7.2,22.55-12.52a163.36,163.36,0,0,0,19-17.57q4.38-4.77,8.53-9.74c2.74-3.34,5.4-6.73,7.95-10.22a205.43,205.43,0,0,0,14-21.7c2.1-3.75,4.08-7.58,5.86-11.48l1.29-2.95c.42-1,.8-2,1.21-3,.78-2,1.46-4,2.21-6.07q4.38-12.35,9.73-24.29A425.91,425.91,0,0,1,597.45,333.4Z"/><path class="cls-9" d="M596.88,497.7c9.85-12.17-66.17-41.24-74-27.51S587.5,509.29,596.88,497.7Z"/><path class="cls-10" d="M490.06,414.77c-13.93,8.8,21.49,66.74,34.54,56.06S503.33,406.39,490.06,414.77Z"/><path class="cls-11" d="M607.18,269.45c-15.08-6.39-33.81,76.46-17.72,80.45S621.54,275.54,607.18,269.45Z"/><path class="cls-12" d="M9.18,355.67c-1.85-20.68,102.75-4.93,101.4,16S10.95,375.37,9.18,355.67Z"/><path class="cls-13" d="M51.36,450c-10.91-17.81,80.92-46.83,89.1-27.37S61.76,466.93,51.36,450Z"/><path class="cls-14" d="M135.56,276.05c20.58.87-4.28,103.54-24.78,99.44S116,275.23,135.56,276.05Z"/><path class="cls-15" d="M180.72,352.15c20,4.57-20.17,81.09-39.79,73.67S161.63,347.8,180.72,352.15Z"/><path class="cls-16" d="M64.32,308.75a531.26,531.26,0,0,1,38.35,52.59q8.82,13.71,16.48,28.17c1.32,2.42,2.52,4.75,3.85,7.07.68,1.15,1.33,2.31,2,3.45l2.14,3.4c2.93,4.48,6.07,8.84,9.35,13.08a256.22,256.22,0,0,0,21.32,24.17c3.78,3.83,7.7,7.52,11.69,11.14s8.13,7.06,12.32,10.44a203.75,203.75,0,0,0,26.66,18.16c9.34,5.31,19.38,9.68,30.13,11.28-1.35-.14-2.7-.23-4.05-.41s-2.69-.4-4-.7-2.66-.59-4-1-2.62-.74-3.91-1.18a112,112,0,0,1-15.09-6.29c-4.87-2.46-9.6-5.18-14.22-8.09S184.33,468,180,464.73A252.15,252.15,0,0,1,133.37,419c-3.32-4.34-6.5-8.8-9.47-13.41l-2.17-3.5c-.71-1.17-1.38-2.37-2.07-3.56-1.35-2.38-2.62-4.87-3.85-7.24-4.87-9.61-10.24-19-15.77-28.27s-11.36-18.4-17.33-27.43S70.6,317.6,64.32,308.75Z"/><path class="cls-17" d="M95.35,511.31c-14.39-13.2,74-63.08,86.18-47.59S109.06,523.88,95.35,511.31Z"/><path class="cls-18" d="M211.82,389.3c18.81,8.28-14.2,86.29-32.27,75.53S193.9,381.41,211.82,389.3Z"/><path class="cls-19" d="M40.53,231.66c17.42-10.67,55.82,88.08,36.7,96S23.94,241.82,40.53,231.66Z"/><path class="cls-20" d="M299.55,538.73A84.86,84.86,0,0,0,310,548.16c3.53,2.39,14,4.21,23.11-1.77a14.36,14.36,0,0,1-8.45-7.18c-3-5.8-5.22-8.93-6-14.83S302.29,522,302.29,522,302.91,535,299.55,538.73Z"/><path class="cls-21" d="M299.84,535.73A40.16,40.16,0,0,0,311.1,544c3.87,1.77,9,4.28,18.55.47a2.91,2.91,0,0,0,.5-.33s12.62,5.23,13.19,5.76c1.18,1.09,3.1,3.58,1.4,6.29-.89,1.42-10.08,1.86-16,1.68-5.46-.17-26-6.32-26-6.32C295.59,547.94,296.67,543.06,299.84,535.73Z"/><path class="cls-22" d="M357.9,538.73a84.86,84.86,0,0,0,10.45,9.43c3.53,2.39,14,4.21,23.11-1.77a14.36,14.36,0,0,1-8.45-7.18c-3-5.8-5.22-8.93-6-14.83S360.64,522,360.64,522,361.26,535,357.9,538.73Z"/><path class="cls-23" d="M358.34,536.16A40.39,40.39,0,0,0,369.46,544c3.87,1.77,9,4.28,18.55.47a2.91,2.91,0,0,0,.5-.33s12.62,5.23,13.19,5.76c1.18,1.09,3.1,3.58,1.4,6.29-.89,1.42-10.08,1.86-16,1.68-5.46-.17-26-6.32-26-6.32C353.94,547.94,355.18,543.49,358.34,536.16Z"/><path class="cls-24" d="M426.46,340.9a5,5,0,0,0-1.83-3l-12.57-11.13-2-10.33a101.61,101.61,0,0,0-10.18,3.85c2.79,8.62,5.83,17.74,6.55,18.77,1.41,2,5,3,6.51,4.76s6.39,11.71,8.52,10.7-1-5.69-1.1-6.18-3.44-4.32-2.85-5.64,3.87,2.44,4.15,2.65a11.1,11.1,0,0,1,2.68,7.65c-.07,2.77,1.84,5.77,3.31,7.67a.76.76,0,0,0,1.35-.57c-.4-3.06-1-7.85-1.13-8.12S427.09,344.19,426.46,340.9Z"/><path class="cls-25" d="M288.83,326.93a35.05,35.05,0,0,1-2.21,3.28c-2.2,2.74-15.37,12.4-15.37,12.4s-4.8,15.74-4.68,16.18,6.81,5.57,10.34,7.19c9,4.11-1-9.87,9.91-15a9.48,9.48,0,0,0,5.88-9c0-1.45,2.08-6.25,4.25-10.8Z"/><polygon class="cls-26" points="242.67 506.58 244.05 525.85 242.35 538.22 239.02 541.17 225.09 536.98 221.66 531.69 223.31 507.31 242.67 506.58"/><polygon class="cls-27" points="195.84 507.45 197.42 517.35 199.24 531.21 194.59 536.11 180.35 533.14 176.48 528.16 178.43 509.16 195.84 507.45"/><path class="cls-28" d="M256.47,430.66c1.5-8,4.67-17.62,2.89-25.55-5.21-23.18-13.54-74.44-18.27-90.93-2.3-8-23.94-15-42.56-15.77a27.75,27.75,0,0,0-.06,3.15c-8.13-1.86-18.48-2.75-28-3.15-1.89,22.24,3.81,125.31,3.81,125.31l3.13,87.76,19.94.39S209,366.66,213.24,366.21s14.21,51.24,13.76,58.4l-5.34,86.12,22.89-.17Z"/><path class="cls-29" d="M249.57,188.69c-8.69-8-41.16-13.27-49-13.37-13.75-.18-36.33,5.2-44.48,14.26-6,6.69-11.41,26.82-15.41,46l28.62,14.81a55.75,55.75,0,0,1,3.94-7.49c-4.18,23.43-6,52.29-5.88,76.55,39.55,4.29,54.39,22.1,75.19-2.12l-.86-81.53L243,252.69l24.64-7.48C265,220.67,259.7,198,249.57,188.69Z"/><path class="cls-30" d="M285.64,355.15c-.79-2.7-.48-3.58-3.93-7.22s-10.85-11.85-10.85-11.85-3-7.91-2.77-11.06c1-12.87,3.05-48-.41-79.81L243,252.69l1.63,21.41S257,340,256.7,340.62a12.49,12.49,0,0,0-.25,7c.71,2.37,1.84,3.92,3.89,6.56s4.15,5.22,4.74,8,0,3,1.33,3.49,4.16-1.73,3.94-4.07-.75-6.33-.75-6.33a27.44,27.44,0,0,0,4.43,2.37,6.94,6.94,0,0,1,4.37,5.14c.7,4.92.89,6.41,2.44,7.61s2.81-3.18,2.81-3.18S287,359.9,285.64,355.15Z"/><path class="cls-31" d="M177.88,232.35C167,242,167.4,319.49,167.4,319.49l16,1.24S176.74,271.68,177.88,232.35Z"/><path class="cls-32" d="M186.3,135.69c-1.24-2.23-2.91-8.4-3.7-10.28,3.25-.2,6.95,4,7.52,6.84C189.27,132.31,187.07,134.9,186.3,135.69Z"/><path class="cls-33" d="M207.4,186.08a11.51,11.51,0,0,0,11.08-8.57,17.16,17.16,0,0,0,.15-4.39l-.06-1.58-.05-1.45-.06-1.79a20.72,20.72,0,0,0,2.46-.32c6.38-1.23,16.28-5.86,18.92-16.39,1.85-7.34-1.21-13.86-1.5-18.11s1.27-7.36,1.78-12.16c.65-6.15-2.24-13.64-5.34-15.27-14-7.37-38,1.59-38,1.59s-8,4.1-3.76,21c-.87-.51,1,3-.17,2.84a7.26,7.26,0,0,0-5.81,1.36c-3,2.56-2.66,8.36,3.86,16l.23.27a38.08,38.08,0,0,1,.57,4.84c0,.24,0,.49.05.75.19,3,.44,6.87.67,10.62.33,5.41.42,10.08.48,11.89C193.08,181.6,198.16,186.4,207.4,186.08Z"/><path class="cls-34" d="M193,128.62c-4.22-16.88,3.76-21,3.76-21s24-9,38-1.59c2.19,1.14,2.74,4.43,3.38,7.22-5.65-4-16.45-1.57-25-.79-4.12.38-2,4.67-3.13,4.95-9.24-1.09-15,3.88-12.55,16.69L193,131.45C193.9,131.39,192.19,128.13,193,128.62Z"/><path class="cls-28" d="M182,124.47c-.71-3-.76-6.24-.62-10.72.29-9.68,5.74-14.79,15.13-18.45l9.07-2.92c.83-.27,16.16-4.47,24.25-1.65,3,1.06,7.37,4.24,7.84,6.84,1.2,6.64,2,10.15,1.5,15.48-5.85-12.92-9.92,4.36-29.61-6.08-3.65-1.94-2,4.67-3.13,4.95-10.43-1.22-16.4,5.25-11.21,22-2.84-1-4.8-2.24-6.38-2.14C186.46,129.74,182.41,126,182,124.47Z"/><path class="cls-35" d="M191.77,154.69a37.77,37.77,0,0,0,26.8,16.86l-.05-1.45-.06-1.79a20.72,20.72,0,0,0,2.46-.32c-5.82-3.3-22.06-12.68-30-19.16l.23.27a38.08,38.08,0,0,1,.57,4.84C191.73,154.18,191.76,154.43,191.77,154.69Z"/><path class="cls-28" d="M193.37,133.5c-.37-.28-1.48-.95-1.48-.95l.1-3.3,5,2.09a2.76,2.76,0,0,1,1.7,2.38l.72,11.51c6.92,2.57,23.15,10.66,25.9,10.58,3.49-.1,3.78-4.54,5.8-3.93s2.25,3.21,3.51,3c.66-.13,4.43-3.68,5.49-5.78,0,0-.78,7.59-1,8.94-.51,3.13-5.7,10.27-5.7,10.27a3,3,0,0,1-2.31,1.35l-8.16.61-4.5-1.69c-6.22-2.11-21.65-12.21-22-13.93C194.15,144.55,197.08,136.33,193.37,133.5Z"/><path class="cls-36" d="M192.59,136.91s-2.46-3-3.94-.54,1.27,6.43,1.27,6.43Z"/><path class="cls-37" d="M169.34,250.43l-28.62-14.81c-4.37,21-7.07,40.92-7.07,40.92l4.8,62.86.06,8.69s-2.08,10.17-3.14,14.76.3,8.55,1,11.11c1.14,4.51,8.51,12.6,8.51,12.6s3.09,3,3.79,1.23-1.06-6.86-2.84-11.18c-.85-2.06-.94-7.86.39-9.64a25.76,25.76,0,0,0,2.45-4s1.47,3.49,2.41,5.48,4.26,2.45,5.13,1.42.25-.95-.59-3.45-.37-5.6,0-8.71.58-4.9,0-7.16a11.73,11.73,0,0,0-3.51-5.51c-.56-.39-1.81-6.31-1.81-6.31s6.52-43,6.52-60.3C157.45,276.55,164.62,260.31,169.34,250.43Z"/><path class="cls-38" d="M476.92,473.15l1.68,19.49-26,37.91,7.89,5.58L489,506a28.45,28.45,0,0,0,7.41-14.89l2.8-16.82Z"/><polygon class="cls-39" points="503.11 477.57 504.65 493.74 511.58 549.35 520.88 547.29 523.32 490.85 525.85 473.15 503.11 477.57"/><path class="cls-40" d="M454.21,528.79s-6.8,1.82-9.75,5c4.11,7.31,15.27,20.66,16.68,20.27s2.69-5.39.77-9.11-.82-9.31-.82-9.31Z"/><path class="cls-41" d="M511.21,548.47s-2.75,6.48-2,10.78c8.29,1.27,25.68.69,26.24-.66s-2.59-5.44-6.7-6.22-7.84-5.09-7.84-5.09Z"/><path class="cls-42" d="M541.65,398.22l7.7,21,21.88,24.46s9.23-1.35,11.55-.64a12.45,12.45,0,0,1,8.6,9.38,1.25,1.25,0,0,1-2,1.23c-3-2.34-6-5.84-7.61-5.74-2.05.13,3.72,6,2.18,6.54s-5.77-3.59-7.44-4.23a15.23,15.23,0,0,0-3.46-.61,11.15,11.15,0,0,1-5-1.72c-6.95-4.45-26.52-17.06-29.57-19.69C534.72,425,528,411.59,528,411.59l-3.94-9.14Z"/><path class="cls-43" d="M462.1,374l-12.83,2.57L430.67,350s-.26-9.72-.9-12.56-12.06-8.1-13.47-7.71,6.67,9.11,6.67,9.11.77,5.13.38,5.26-7.57-3.21-8.85-2.44,8,7.7,8,7.7,13.09,38.62,18,40.8,25.92.81,25.92.81Z"/><path class="cls-44" d="M544.34,397.71c-9.27-20.39-23.48-32.4-46.19-31.95-1.35,0-2.69.33-4,.45h0s-29,3.25-32.43,5.94,2.82,22.1,2.82,22.1l17.14-3.31c2.41,7.11,5,14.41,3.14,22.87-3.07,13.86-25,46.19-21.54,60.43,13.86,6.16,27.59,13.14,66.07,6.6,3.29-10.09,2.42-46,1.33-72.93A66.19,66.19,0,0,0,544.34,397.71Z"/><path class="cls-45" d="M495.73,351.81c6.28,8.9,14,11.79,20,12.57l.16-2.78c-5.81-1.71-12.76-5.73-20.85-14.16l.17.2a28.45,28.45,0,0,1,.5,3.61C495.69,351.43,495.71,351.61,495.73,351.81Z"/><path class="cls-46" d="M531.59,348.81c-1.82,7.91-9.15,11.51-13.9,12.51-.46.09-.89.16-1.28.21l-.55.06-.05,1.34-1.7,23a2.09,2.09,0,0,1-3.74,1.13c-4.7-6.09-12.72-16.71-12.81-18.4,0,0-.7-3.64-1.66-14.72-.06-.69-.12-1.41-.18-2.17,0-.19,0-.38-.05-.56,0-.37-.08-.82-.13-1.27a16.67,16.67,0,0,0-.36-2.34,1.68,1.68,0,0,1-.17-.2c-2.65-3-4-5.62-4.3-7.72,0-2.59,0-4.51,3-6.15.25-15.55,10.15-21.41,26.78-17.85,1-.26,3.19,2.31,5.72,4.09,1.91,1.34,3.71,3.78,4.62,8.09h0a33,33,0,0,0-.6,7.39C530.49,338.48,532.87,343.3,531.59,348.81Z"/><path class="cls-47" d="M515.81,362.94s-13.27-1.56-19.9-9c-.06-.69-.12-1.41-.18-2.17,0-.19,0-.38-.05-.56,0-.37-.08-.82-.13-1.27,8.12,6.56,15,10,20.87,11.56l-.55.06Z"/><path class="cls-48" d="M496.08,338.52s-1.88-2.22-3-.34,1,4.79,1,4.79Z"/><path class="cls-49" d="M522.91,321.77s-9.05,9.36-14.63,12c-6.35,3-9.91,3.21-9.91,3.21s-2.92-3.57-4.52-2.93c-2.79,1.11-3.35,3.13-3.06,6.14-2.68-1.47-1.51-5.37-1.51-5.37s-15.64-16.37-4.47-27.16S509.05,310,509.05,310s9.75-10.66,20.53-4.88,8.71,20.51,1,24.36A41.42,41.42,0,0,1,522.91,321.77Z"/><circle class="cls-50" cx="488.08" cy="331.89" r="3.46"/><circle class="cls-51" cx="484.61" cy="326.6" r="3.46"/><circle class="cls-52" cx="482.3" cy="320.73" r="3.46"/><circle class="cls-53" cx="482.3" cy="314.72" r="3.46"/><circle class="cls-54" cx="483.75" cy="308.75" r="3.46"/><circle class="cls-55" cx="488.85" cy="305.29" r="3.46"/><circle class="cls-56" cx="494.46" cy="304.81" r="3.46"/><circle class="cls-57" cx="499.55" cy="305.29" r="3.46"/><circle class="cls-58" cx="503.01" cy="307.41" r="3.46"/><circle class="cls-59" cx="505.98" cy="309.71" r="3.46"/><circle class="cls-60" cx="512.37" cy="308.27" r="3.46"/><circle class="cls-61" cx="517.18" cy="305.29" r="3.46"/><circle class="cls-62" cx="523.05" cy="304.81" r="3.46"/><circle class="cls-63" cx="528.5" cy="304.81" r="3.46"/><circle class="cls-64" cx="531.97" cy="307.79" r="3.46"/><circle class="cls-65" cx="535.43" cy="311.74" r="3.46"/><circle class="cls-66" cx="535.91" cy="316.64" r="3.46"/><circle class="cls-67" cx="535.43" cy="322.29" r="3.46"/><circle class="cls-68" cx="532.79" cy="327.14" r="3.46"/><rect class="cls-28" x="173.91" y="499.5" width="25.34" height="12.43" rx="4.03" ry="4.03"/><rect class="cls-28" x="220.34" y="499.5" width="26.38" height="12.43" rx="4.11" ry="4.11"/><path class="cls-69" d="M191.88,175.82s2.51,48.31,23.1,48.31,3.5-46.62,3.5-46.62"/><circle class="cls-70" cx="190.92" cy="146.66" r="1.67"/><path class="cls-71" d="M376.39,302.23c14.11,42.33,11.52,123.35,11.52,123.35l-8.28,102.61h-22c-3-34.34-2.16-61.09-.82-78.13a258.22,258.22,0,0,0-.88-50.11s-.95-39.32-4.56-39.15-11,69.41-11,69.41l-18.2,98H299.6c-.5-12.53,1.86-39.31,6.77-70.45a227.08,227.08,0,0,0,1.9-57.15c-2.3-23.94-1.11-41,.67-53.85,4.56-32.73,20.31-50.1,20.31-50.1Z"/><path class="cls-28" d="M175.1,530.81s-4.23,1.82,3.82,20.46c1.88,4.36,10.4,6.94,18.73,6.7s11.91-1.5,12.48-3.81-4.39-9.76-4.39-9.76Z"/><path class="cls-72" d="M175.18,529s-.08-4,1.72-4.88c.83,4.68,3.1,1,5.67-1.59,2.22-2.28,3.11-4.17,7.37-4.49s5.6,3.13,7.37,4.49c3.15,2.43,3.22,1,4.23,4.56.89,3.15,3.63,14.66,6.07,19.29a2.73,2.73,0,0,1-.4,3.23c-4,3.89-12.88,2.48-17.77,1.66-5.55-.92-10.56-4.39-12.72-11.78S175.18,529,175.18,529Z"/><path class="cls-28" d="M219.77,540.53v5.33a3.8,3.8,0,0,0,3.27,3.77c3.74.52,9.77,1.4,13,2,5,1,16.87,5.3,23.57,5.73s14.27.54,17.62-1.62,2.59-7.24,2.59-7.24Z"/><path class="cls-73" d="M221.71,526.26s-3.46,13.19-1.51,15.14,16.54,2.92,20.43,5.41,19.79,6.38,28.22,5.73,10.81-1.73,11-4-16.76-5.41-19.79-7.68-4.87-10.27-9.08-13-1-7.57-5.41-7.78-3.24,6.92-9.84,7.35A59.32,59.32,0,0,1,221.71,526.26Z"/><path class="cls-70" d="M180.78,122.36l13.91-5.68s5.1,11,11.76,10.58,16.27-5.68,22.14-7.25,15.09,0,18.22,10.78c-2.16-8.82-5.1-10.58-5.1-11.17s2.35-15.48-5.1-24.1-15.87-11-25.87-10.78-22,4.57-26.85,16.46S180.78,122.36,180.78,122.36Z"/><path class="cls-74" d="M327.32,200.61c-4.71,1.73-13.25,9.65-15.42,13.12C294,242.35,280.74,332.06,280.74,332.06l15.6,6.72,23-78.62c1.05,6.11-19.78,127.74-19.78,127.74l30.27,4,13.25-198.6A16.6,16.6,0,0,0,327.32,200.61Z"/><path class="cls-74" d="M400.25,331.56,415,326.21s-20.77-115.66-50.15-121.67h0a22.44,22.44,0,0,0-5.73-5.95l12.9,198.33,20.84-7.79s-17.95-119.23-16.78-131.2Z"/><path class="cls-75" d="M350.87,194.93l-6.2-1.34c-.54-.12-1.07-.19-1.61-.26l-8.5,127.35,32.7,2.45-8.1-124.54A22.4,22.4,0,0,0,350.87,194.93Z"/><path class="cls-76" d="M354,126.14l5.33-1.1a1.34,1.34,0,0,1,1.47.72l1.91,3.86a1.34,1.34,0,0,0,1,.73l3,.51a1.34,1.34,0,0,1,1.11,1.41l-.23,3.53a1.34,1.34,0,0,0,1.11,1.41l2.69.46a1.34,1.34,0,0,1,1.11,1.39l-.15,2.91a1.34,1.34,0,0,0,.63,1.21l3.23,2a1.34,1.34,0,0,1,.3,2l-2.07,2.36a1.34,1.34,0,0,0,.23,2l3.69,2.61a1.34,1.34,0,0,1,.38,1.77l-1.59,2.72a1.34,1.34,0,0,0,.13,1.54l1.92,2.28a1.34,1.34,0,0,1-.27,2l-2,1.37a1.34,1.34,0,0,0-.33,1.9l3.15,4.36a1.34,1.34,0,0,1-.09,1.69l-1.93,2.14a1.34,1.34,0,0,0-.06,1.73l3,3.77a1.34,1.34,0,0,1,0,1.69l-2.82,3.4a1.34,1.34,0,0,0-.06,1.64l1.57,2.2a1.34,1.34,0,0,1,.08,1.44L378,194.2c-.1.17.14.59.16,1.14a7.87,7.87,0,0,1,0,1.06"/><path class="cls-77" d="M347.82,126.14l5.33-1.1a1.34,1.34,0,0,1,1.47.72l1.91,3.86a1.34,1.34,0,0,0,1,.73l3,.51a1.34,1.34,0,0,1,1.11,1.41l-.23,3.53a1.34,1.34,0,0,0,1.11,1.41l2.69.46a1.34,1.34,0,0,1,1.11,1.39l-.15,2.91a1.34,1.34,0,0,0,.63,1.21l3.23,2a1.34,1.34,0,0,1,.3,2l-2.07,2.36a1.34,1.34,0,0,0,.23,2l3.69,2.61a1.34,1.34,0,0,1,.38,1.77L371,158.66a1.34,1.34,0,0,0,.13,1.54l1.92,2.28a1.34,1.34,0,0,1-.27,2l-2,1.37a1.34,1.34,0,0,0-.33,1.9l3.15,4.36a1.34,1.34,0,0,1-.09,1.69l-1.93,2.14a1.34,1.34,0,0,0-.06,1.73l3,3.77a1.34,1.34,0,0,1,0,1.69l-2.82,3.4a1.34,1.34,0,0,0-.06,1.64l1.57,2.2a1.34,1.34,0,0,1,.08,1.44l-1.37,2.43c-.1.17.14.59.16,1.14a7.87,7.87,0,0,1,0,1.06"/><path class="cls-78" d="M361.7,123.92l5.33-1.1a1.34,1.34,0,0,1,1.47.72l1.91,3.86a1.34,1.34,0,0,0,1,.73l3,.51a1.34,1.34,0,0,1,1.11,1.41l-.23,3.53a1.34,1.34,0,0,0,1.11,1.41l2.69.46a1.34,1.34,0,0,1,1.11,1.39l-.15,2.91a1.34,1.34,0,0,0,.63,1.21l3.23,2a1.34,1.34,0,0,1,.3,2l-2.07,2.36a1.34,1.34,0,0,0,.23,2l3.69,2.61a1.34,1.34,0,0,1,.38,1.77l-1.59,2.72A1.34,1.34,0,0,0,385,158l1.92,2.28a1.34,1.34,0,0,1-.27,2l-2,1.37a1.34,1.34,0,0,0-.33,1.9l3.15,4.36a1.34,1.34,0,0,1-.09,1.69l-1.93,2.14a1.34,1.34,0,0,0-.06,1.73l3,3.77a1.34,1.34,0,0,1,0,1.69l-2.82,3.4a1.34,1.34,0,0,0-.06,1.64l1.57,2.2a1.34,1.34,0,0,1,.08,1.44L385.68,192c-.1.17.14.59.16,1.14a7.87,7.87,0,0,1,0,1.06"/><path class="cls-79" d="M373.22,138.22c-18-15.77-44.87-6.47-51.19,13.32-14.33,44.86,37.4,45.61,43.37,47.8C386.3,185,388.63,152.93,373.22,138.22Z"/><path class="cls-80" d="M378.7,146.36c-.1,1.09-.23,2.17-.38,3.23-1.44-5.53-10.87-11.79-21.56-10.81,0,0,0,1.29-2,1.65s-2.9-2.15-3.35,0-.44,5-2.9,5a4,4,0,0,0-4.24,3.12c-.23,1.56,3.93,7.18,1.85,8.56-2.38,1.58-4.1,7.48-4.1,7.48s-1.85-13.7-9.24-5.68c-.52,1.47-1,3-1.33,4.44a5.16,5.16,0,0,1,1.4-4.89,4.47,4.47,0,0,1,1.12-.74,38.25,38.25,0,0,1-1.79-11.26c0-2.11-4.76-9.85-4.2-12,2.92-11.27,22.57-18.06,32.07-17.4S379.6,135.79,378.7,146.36Z"/><path class="cls-81" d="M337.3,177.52A33,33,0,0,0,361,191.8l-.07-1.27-.08-1.56c-6.79-2-14.92-6.7-24.38-16.55l.2.23a33.26,33.26,0,0,1,.58,4.22C337.26,177.08,337.28,177.3,337.3,177.52Z"/><path class="cls-82" d="M379.22,174c-2.13,9.24-10.69,13.45-16.24,14.63-.53.11-1,.19-1.5.24-.23,0-.44.06-.64.08l.08,1.56.14,2,.12,1.76-7.84,29.11c.5,2.08-13.73-23.34-13.88-26.14,0,0-.82-4.26-1.94-17.2-.07-.81-.14-1.65-.21-2.53,0-.23,0-.44-.06-.65,0-.44-.1-1-.16-1.49a19.49,19.49,0,0,0-.42-2.73,2,2,0,0,1-.2-.23c-3.1-3.5-4.66-6.57-5-9,.21-.86.45-1.71.71-2.56a6.58,6.58,0,0,1,2.75-3.72c5.62-3.48,7.1,7.52,7.1,7.52s19-3.93,23.68-26.1a9.34,9.34,0,0,1,7.24,1.59c2.23,1.56,4.34,4.42,5.4,9.46h0a38.58,38.58,0,0,0-.7,8.64C377.94,161.94,380.72,167.58,379.22,174Z"/><path class="cls-83" d="M372.91,140.13c-2.91,7.58-7.54,14.65-16.71,19.87-10.14,5.77-14.2,4.64-14.2,4.64s19-3.93,23.68-26.1A9.34,9.34,0,0,1,372.91,140.13Z"/><path class="cls-84" d="M360.91,190.53s-15.64-1.82-23.4-10.48c-.07-.81-.14-1.65-.21-2.53,0-.23,0-.44-.06-.65,0-.44-.1-1-.16-1.49,9.49,7.67,17.56,11.67,24.39,13.51-.23,0-.44.06-.64.08Z"/><path class="cls-85" d="M337.72,162s-2.2-2.6-3.45-.4,1.22,5.6,1.22,5.6Z"/><path class="cls-86" d="M350.47,119.27l-5.06-2a1.34,1.34,0,0,0-1.57.46l-2.54,3.47a1.34,1.34,0,0,1-1.08.55h-3a1.34,1.34,0,0,0-1.34,1.2l-.37,3.52a1.34,1.34,0,0,1-1.34,1.2h-2.73a1.34,1.34,0,0,0-1.33,1.18l-.35,2.89a1.34,1.34,0,0,1-.83,1.08l-3.52,1.42a1.34,1.34,0,0,0-.64,1.95l1.64,2.68a1.34,1.34,0,0,1-.57,1.91l-4.08,1.95a1.34,1.34,0,0,0-.68,1.68l1.11,3a1.34,1.34,0,0,1-.39,1.5l-2.28,1.92a1.34,1.34,0,0,0-.07,2l1.76,1.69a1.34,1.34,0,0,1,0,1.93l-3.85,3.76a1.34,1.34,0,0,0-.2,1.68l1.54,2.44a1.34,1.34,0,0,1-.24,1.71l-3.57,3.21a1.34,1.34,0,0,0-.27,1.67l2.21,3.83a1.34,1.34,0,0,1-.22,1.62l-1.92,1.9a1.34,1.34,0,0,0-.32,1.41l.94,2.62a1.93,1.93,0,0,1-.35,1.1,3.27,3.27,0,0,0,1,4.21l.16,3.19"/><path class="cls-87" d="M355.81,125.47l-5.06-2a1.34,1.34,0,0,0-1.57.46l-2.54,3.47a1.34,1.34,0,0,1-1.08.55h-3a1.34,1.34,0,0,0-1.34,1.2l-.37,3.52a1.34,1.34,0,0,1-1.34,1.2h-2.73a1.34,1.34,0,0,0-1.33,1.18l-.35,2.89a1.34,1.34,0,0,1-.83,1.08l-3.52,1.42a1.34,1.34,0,0,0-.64,1.95l1.64,2.68a1.34,1.34,0,0,1-.57,1.91L327.07,149a1.34,1.34,0,0,0-.68,1.68l1.11,3a1.34,1.34,0,0,1-.39,1.5L324.83,157a1.34,1.34,0,0,0-.07,2l1.76,1.69a1.34,1.34,0,0,1,0,1.93l-3.85,3.76a1.34,1.34,0,0,0-.2,1.68l1.54,2.44a1.34,1.34,0,0,1-.24,1.71l-3.57,3.21a1.34,1.34,0,0,0-.27,1.67l2.21,3.83a1.34,1.34,0,0,1-.22,1.62l-1.92,1.9a1.34,1.34,0,0,0-.32,1.41l.94,2.62a1.93,1.93,0,0,1-.35,1.1,3.27,3.27,0,0,0,1,4.21l.16,3.19"/><path class="cls-88" d="M343.9,123.23l-5.06-2a1.34,1.34,0,0,0-1.57.46l-2.54,3.47a1.34,1.34,0,0,1-1.08.55h-3a1.34,1.34,0,0,0-1.34,1.2l-.37,3.52a1.34,1.34,0,0,1-1.34,1.2h-2.73a1.34,1.34,0,0,0-1.33,1.18l-.35,2.89a1.34,1.34,0,0,1-.83,1.08l-3.52,1.42a1.34,1.34,0,0,0-.64,1.95l1.64,2.68a1.34,1.34,0,0,1-.57,1.91l-4.08,1.95a1.34,1.34,0,0,0-.68,1.68l1.11,3a1.34,1.34,0,0,1-.39,1.5l-2.28,1.92a1.34,1.34,0,0,0-.07,2l1.76,1.69a1.34,1.34,0,0,1,0,1.93l-3.85,3.76a1.34,1.34,0,0,0-.2,1.68l1.54,2.44a1.34,1.34,0,0,1-.24,1.71l-3.57,3.21a1.34,1.34,0,0,0-.27,1.67l2.21,3.83a1.34,1.34,0,0,1-.22,1.62l-1.92,1.9a1.34,1.34,0,0,0-.32,1.41l.94,2.62a1.93,1.93,0,0,1-.35,1.1c-.51,1,2.29,2.27,2.75,3.19"/><path class="cls-89" d="M344.7,119.62l-4.88-2.41a1.34,1.34,0,0,0-1.61.32l-2.83,3.25a1.34,1.34,0,0,1-1.13.46l-3-.26a1.34,1.34,0,0,0-1.43,1.08l-.67,3.48a1.34,1.34,0,0,1-1.43,1.08L325,126.4a1.34,1.34,0,0,0-1.43,1.06l-.59,2.85a1.34,1.34,0,0,1-.92,1l-3.63,1.12a1.34,1.34,0,0,0-.81,1.88l1.41,2.81a1.34,1.34,0,0,1-.73,1.86l-4.23,1.59a1.34,1.34,0,0,0-.82,1.62l.85,3a1.34,1.34,0,0,1-.52,1.46l-2.43,1.72a1.34,1.34,0,0,0-.23,2l1.61,1.83a1.34,1.34,0,0,1-.16,1.92l-4.15,3.42a1.34,1.34,0,0,0-.34,1.65l1.33,2.56a1.34,1.34,0,0,1-.38,1.69l-3.83,2.9a1.34,1.34,0,0,0-.41,1.64l1.87,4a1.34,1.34,0,0,1-.36,1.6L304,175.35a1.34,1.34,0,0,0-.44,1.38l.72,2.69c.05.19-.28.53-.45,1.06-.65,2.11-1.83,3.26-.87,3.41"/><path class="cls-90" d="M323.13,187.34l.88-6.69c0-.19-3,.7-3.22.61l-2.57-3.89a.46.46,0,0,1-.08-.77l6.35-5a.46.46,0,0,0,.09-.63l-1.89-2.66a.46.46,0,0,1,0-.54l3.41-4.72a.46.46,0,0,0,.06-.43L324.47,158a.46.46,0,0,1,.13-.51l2.78-2.38a.46.46,0,0,0,.13-.52l-1.94-4.7a.46.46,0,0,1,.11-.51l2.85-2.74a.46.46,0,0,0,0-.65l-1.34-1.41a.46.46,0,0,1,0-.68l3.5-2.79a.46.46,0,0,0,.11-.6L329.29,138a.46.46,0,0,1,.39-.7h3.18a.46.46,0,0,0,.45-.39l.56-3.56a.46.46,0,0,1,.45-.39h4a.46.46,0,0,0,.45-.55l-.57-3a.46.46,0,0,1,.45-.55h4.13a.46.46,0,0,0,.46-.46v-3a.46.46,0,0,1,.46-.46h3.25a.46.46,0,0,0,.46-.46v-3.39a.46.46,0,0,1,.46-.46h5.8"/><path class="cls-91" d="M357.45,117l-2.13,2.39a.92.92,0,0,0-.23.73l.33,2.48a.92.92,0,0,1-.72,1l-.41.09a.92.92,0,0,0-.45,1.56l2.46,2.37a.92.92,0,0,1-.38,1.54l-1.09.32a.92.92,0,0,0-.53,1.37l1.28,2.07a.92.92,0,0,1-.46,1.35l-.62.23a.92.92,0,0,0-.55,1.16l1.29,3.71a.92.92,0,0,1-.53,1.16l-1.21.47a.92.92,0,0,0-.5,1.24l1.42,3.12a.92.92,0,0,1-.84,1.3h-2.54a.91.91,0,0,0-.59.21c-.91.76-3.83,3.34-2.53,4s-1.57.86-2.92.95a.92.92,0,0,0-.84.73l-.87,4.18a.92.92,0,0,1-.41.59l-4.19,2.88"/><path class="cls-92" d="M349.65,125.16l-8.44,8.61a1.5,1.5,0,0,0-.13,1.83h0a1.5,1.5,0,0,1-.54,2.15l-2.76,1.48a1.49,1.49,0,0,0-.63,2,4.32,4.32,0,0,1,.57,1.53c-.09.47-3.47,4.05-3.8,4.52-.21.29.2,2,.54,3.28a1.49,1.49,0,0,1-.91,1.78l-1.26.49a1.5,1.5,0,0,0-1,1.4V159a1.48,1.48,0,0,1-.24.81,18,18,0,0,1-2.35,3.06c-.75.62-.3,3.45-.09,4.55a1.49,1.49,0,0,1-.11.89l-1.18,2.62a1.5,1.5,0,0,0-.11.86l1.08,6.41a1.5,1.5,0,0,1-.22,1.07l-1.49,2.28a1.5,1.5,0,0,0-.19,1.23l1.45,5.13a1.5,1.5,0,0,1-.39,1.47L325,191.8"/><path class="cls-93" d="M357,125.16l-8.44,8.61a1.5,1.5,0,0,0-.13,1.83h0a1.5,1.5,0,0,1-.54,2.15l-2.76,1.48a1.49,1.49,0,0,0-.63,2,4.32,4.32,0,0,1,.57,1.53c-.09.47-3.47,4.05-3.8,4.52-.21.29.2,2,.54,3.28a1.49,1.49,0,0,1-.91,1.78l-1.26.49a1.5,1.5,0,0,0-1,1.4V159a1.48,1.48,0,0,1-.24.81,18,18,0,0,1-2.35,3.06c-.75.62-.3,3.45-.09,4.55a1.49,1.49,0,0,1-.11.89l-1.18,2.62a1.5,1.5,0,0,0-.11.86l1.08,6.41a1.5,1.5,0,0,1-.22,1.07L334,181.54a1.5,1.5,0,0,0-.19,1.23l1.45,5.13a1.5,1.5,0,0,1-.39,1.47l-2.47,2.43"/><path class="cls-94" d="M361.48,118.89l3.88,2.26a1.67,1.67,0,0,1,1.54,1l.76,1.79a1.67,1.67,0,0,0,.88.88h0a1.67,1.67,0,0,1,1,1.25l-2.34,3.24c.14.8,3.45-.23,4.26-.23h.77a1.67,1.67,0,0,1,1.25.56c.86,1,2.5,2.88,2.43,3.21A4.27,4.27,0,0,1,375,134a1.67,1.67,0,0,0,.12,2.48,5.61,5.61,0,0,0,2.43,1.4c1.09,0,1.67,3.12,1.33,3.28-2.18,1.06,1.67,2.83,2.45,4.07a1.66,1.66,0,0,1,.18,1.4,9,9,0,0,0-.58,2.39c.1.24,1.55,2.64,2.41,4a1.66,1.66,0,0,1-.15,1.94l-2,2.42a1.67,1.67,0,0,0-.19,1.87l4.21,2c.18.33-2.22,2-2.28,2.33L382.1,168a1.67,1.67,0,0,0,.07.85l1.5,4.18a1.67,1.67,0,0,1-.09,1.35l-1.26,2.38a1.67,1.67,0,0,1-.31.41l-1.08,1.06a1.67,1.67,0,0,0,.23,2.57l.12,5.09"/><path class="cls-95" d="M361.26,124.36l3-2.3.21-.19c.34-.35,1.54-1.53,1.87-1.16s1.38.09,2.32-.09a1.92,1.92,0,0,1,2,.85l.68,1.06a1.92,1.92,0,0,0,.6.6l2.67,1.68a1.92,1.92,0,0,1,.8,1l.81,2.45a1.92,1.92,0,0,0,.69.95l1.77,1.29a1.92,1.92,0,0,1,.38.37l1.19,1.51a1.92,1.92,0,0,1,.41,1.12l.06,1.57a1.92,1.92,0,0,0,1.58,1.82h0a1.92,1.92,0,0,1,1.5,2.45l-.22.73a1.92,1.92,0,0,0,.69,2.1l2.08,1.54a1.92,1.92,0,0,1,.68,2.16l-.13.39a1.92,1.92,0,0,0,.58,2.08l2.12,1.78a1.92,1.92,0,0,1,.29,2.64l-1.28,1.66a1.92,1.92,0,0,0,.34,2.68l.2.15a1.92,1.92,0,0,1,.68,2l-.58,2.31a1.92,1.92,0,0,0,.79,2.06l.43.29a1.92,1.92,0,0,1,.51,2.68l-2,2.92a1.92,1.92,0,0,0-.23,1.72l1,2.93a1.92,1.92,0,0,1,.06.22l.73,3.34"/><path class="cls-96" d="M363.44,134l1.39-1.13a1.33,1.33,0,0,1,1.75.06l1.33,1.24a1.33,1.33,0,0,0,1.57.18h0a1.33,1.33,0,0,1,2,.83l.61,2.42a1.63,1.63,0,0,0,1.45.95,2.14,2.14,0,0,1,1.8,1.51l.38,1.26c.13.43,1.18.7,1.65,1.31a2.71,2.71,0,0,1,.22,3l-.52.94"/><path class="cls-97" d="M358.86,120.6l1.66,2.32a1.43,1.43,0,0,1,.16,1.37l-.33.82a1.43,1.43,0,0,0,.41,1.64l1.62,1.34a1.43,1.43,0,0,1-.27,2.38l-.37.18a1.43,1.43,0,0,0-.4,2.26l.86.92a1.43,1.43,0,0,1-.13,2.08l-.22.18a1.43,1.43,0,0,0-.38,1.72,28,28,0,0,1,1.78,4.14c0,.29-1.5.86-2.64,1.27a1.42,1.42,0,0,0-.89,1.75c.45,1.5,1,3.79.31,4a24.25,24.25,0,0,1-4.5.09,1.43,1.43,0,0,0-1.44,1.75l.54,2.33a1.43,1.43,0,0,1-1.39,1.75H350.3a1.43,1.43,0,0,0-1.42,1.57l.29,3a1.43,1.43,0,0,1-1,1.51l-3.58,1a1.43,1.43,0,0,0-.95.86L342,167.18"/><path class="cls-98" d="M364.84,120.6l1.66,2.32a1.43,1.43,0,0,1,.16,1.37l-.33.82a1.43,1.43,0,0,0,.41,1.64l1.62,1.34a1.43,1.43,0,0,1-.27,2.38l-.37.18a1.43,1.43,0,0,0-.4,2.26l.86.92a1.43,1.43,0,0,1-.13,2.08l-.22.18a1.43,1.43,0,0,0-.38,1.72,28,28,0,0,1,1.78,4.14c0,.29-1.5.86-2.64,1.27a1.42,1.42,0,0,0-.89,1.75c.45,1.5,1,3.79.31,4a24.25,24.25,0,0,1-4.5.09,1.43,1.43,0,0,0-1.44,1.75l.54,2.33a1.43,1.43,0,0,1-1.39,1.75l-2.64,1.17c-.84,0-3,3.26-2.91,4.1"/><path class="cls-99" d="M371,121.15l-5.85-2.88a8.15,8.15,0,0,0-5.12-2.37L358.37,117c-1-.21-2.55-1-2.82,0-.15.55-1.12-1-1.55-1h-.1a2,2,0,0,0-2,2.23l.49,3.34a2,2,0,0,1-1.1,2l-.58.27a2,2,0,0,0-1.07,2.22l.3,1.25a2,2,0,0,1-.73,2l-1.91,1.42a2,2,0,0,0-.62,2.37l.76,1.7c.3.66.94,3,.49,3.55l-5.18,4a2,2,0,0,0-.22,2.08l.93,1.87a1.94,1.94,0,0,1-.19,2c-1,1.26-2.59,3.29-3,3.14s-1,1.15-1.23,1.91a1.94,1.94,0,0,1-.63.89l-3.21,2.53a2,2,0,0,0-.51.6l-1.64,3a2,2,0,0,0-.17.44l-1,3.94a2,2,0,0,0-.05.3l-.29,3a2,2,0,0,0,.65,1.65l1.41,1.25a2,2,0,0,1-.46,3.22h0a2,2,0,0,0-.61,3.08l1,1.15a2,2,0,0,1-.06,2.69l-1.08,1.08a2,2,0,0,0-.55,1.68l.75,4.81"/><rect class="cls-100" x="295.99" y="520.09" width="29.04" height="8.7" rx="4.35" ry="4.35"/><rect class="cls-101" x="354.35" y="520.09" width="29.04" height="8.7" rx="4.35" ry="4.35"/><path class="cls-74" d="M337.29,193.22c-.44.56-11.1,3.84-11.1,3.84L341,219.94l1.29-14.72Z"/><polygon class="cls-74" points="359.16 198.6 367.72 201.45 361.1 225.07 359.16 198.6"/><polygon class="cls-102" points="334.24 323.68 367.72 327.14 367.87 331.73 334.04 328.43 334.24 323.68"/><path class="cls-103" d="M357.39,335.07s.15,15.89-6.07,25.73"/><path class="cls-103" d="M219.85,332.71c.43.87.86,19.32-6.61,33.5"/><path class="cls-104" d="M496.08,372.94s11,20.37,17.34,19.65,5.63-18.41,5.63-18.41"/></g></svg>