<svg xmlns="http://www.w3.org/2000/svg" width="220.758" height="155.133" viewBox="0 0 220.758 155.133"><path d="M18.4,4A18.36,18.36,0,0,0,0,22.251V140.882a18.36,18.36,0,0,0,18.4,18.251H202.361a18.36,18.36,0,0,0,18.4-18.251V22.251A18.36,18.36,0,0,0,202.361,4ZM135.674,52.194a47.713,47.713,0,0,1,14.66,2.852l-2.587,12.833s-5.893-3.707-10.923-3.707c-7.725,0-10.348,2.317-10.348,5.7,0,6.595,21.558,7.735,21.558,22.528.036,12.3-15.306,20.817-26.445,20.817S104.63,109.8,104.63,109.8l2.587-12.262a32.468,32.468,0,0,0,14.947,3.422c8.983,0,10.348-3.814,10.348-5.418,0-9.446-21.558-6.737-21.558-25.1C110.954,60.286,119.326,52.194,135.674,52.194Zm-123.6,1.141H35.931c6.144,0,8.623,5.989,8.623,5.989l5.174,26.236C42.578,62.745,12.073,53.335,12.073,53.335Zm53.752,0H82.5l-23.57,58.175H41.68L29.319,64.456S42.47,70.944,50.59,88.981c.323,2.174,1.15,5.7,1.15,5.7Zm23,0h15.522l-9.2,58.175H79.335Zm84.221,0h16.384L201.5,111.509H187.414l-1.725-8.27H166.431l-3.449,8.27H147.747Zm6.036,16.825-8.336,21.958H183.39Z" transform="translate(0 -4)"/></svg>